<?xml version="1.0" standalone="no"?><!DOCTYPE svg PUBLIC "-//W3C//DTD SVG 1.1//EN" "http://www.w3.org/Graphics/SVG/1.1/DTD/svg11.dtd"><svg class="icon" width="32px" height="32.00px" viewBox="0 0 1024 1024" version="1.1" xmlns="http://www.w3.org/2000/svg"><path d="M726.4256 480.3072H542.72V296.6528a30.72 30.72 0 0 0-61.44 0v183.6544H297.6256a30.72 30.72 0 1 0 0 61.44H481.28v183.7056a30.72 30.72 0 0 0 61.44 0v-183.7056h183.7056a30.72 30.72 0 0 0 0-61.44z" fill="#666666" /><path d="M794.9824 228.0448a400.0256 400.0256 0 1 0 0 565.9648 400.6912 400.6912 0 0 0 0-565.9648z m-43.4688 522.5472a338.7392 338.7392 0 1 1 99.2256-239.5648 336.5376 336.5376 0 0 1-99.2256 239.5648z" fill="#666666" /></svg>