<?xml version="1.0" standalone="no"?><!DOCTYPE svg PUBLIC "-//W3C//DTD SVG 1.1//EN" "http://www.w3.org/Graphics/SVG/1.1/DTD/svg11.dtd"><svg class="icon" width="32px" height="32.00px" viewBox="0 0 1024 1024" version="1.1" xmlns="http://www.w3.org/2000/svg"><path d="M829.001143 549.302857a37.449143 37.449143 0 0 0-37.302857 41.691429h-0.146286v358.253714H74.971429V232.667429H466.651429a37.522286 37.522286 0 1 0 0-75.117715H74.971429C33.499429 157.549714 0 191.049143 0 232.521143v716.580571C0 990.500571 33.499429 1024 74.971429 1024h716.507428c41.398857 0 74.971429-33.499429 74.971429-74.898286V590.994286h-0.292572a37.449143 37.449143 0 0 0-37.156571-41.691429m114.834286-381.220571l-68.973715 68.900571-87.990857-87.990857 68.973714-68.900571 0.219429-0.219429 87.990857 87.990857-0.292571 0.219429zM508.342857 603.574857l-152.722286 64.731429 64.585143-152.795429 310.052572-309.906286 87.990857 88.064L508.342857 603.574857z m492.324572-492.105143L912.530286 23.332571a80.310857 80.310857 0 0 0-113.371429 0.219429L357.668571 465.188571a36.059429 36.059429 0 0 0-7.533714 11.337143L239.177143 738.157714a35.254857 35.254857 0 0 0 7.533714 38.985143 34.962286 34.962286 0 0 0 39.131429 7.68l261.851428-110.957714a37.522286 37.522286 0 0 0 11.337143-7.533714l441.490286-441.490286a80.384 80.384 0 0 0 0.146286-113.371429z" fill="#dbdbdb" /></svg>