<?xml version="1.0" standalone="no"?><!DOCTYPE svg PUBLIC "-//W3C//DTD SVG 1.1//EN" "http://www.w3.org/Graphics/SVG/1.1/DTD/svg11.dtd"><svg class="icon" width="32px" height="32.00px" viewBox="0 0 1024 1024" version="1.1" xmlns="http://www.w3.org/2000/svg"><path d="M512 1012.869565C235.386435 1012.869565 11.130435 788.613565 11.130435 512S235.386435 11.130435 512 11.130435 1012.869565 235.386435 1012.869565 512 788.613565 1012.869565 512 1012.869565z m0-958.174608C259.428174 54.694957 54.694957 259.428174 54.694957 512S259.428174 969.305043 512 969.305043 969.305043 764.571826 969.305043 512 764.571826 54.694957 512 54.694957zM242.93287 769.625043l153.978434-400.361739 384.957218-138.596174-138.818783 389.253566-400.116869 149.704347z m184.765217-369.574956l-123.191652 307.97913 307.97913-123.191652 107.787131-292.574608-292.574609 107.78713z m53.292522 120.119652a43.097043 43.097043 0 1 1 60.905739-60.972522 43.097043 43.097043 0 0 1-60.905739 60.972522z" fill="#707070" /></svg>