<?xml version="1.0" standalone="no"?><!DOCTYPE svg PUBLIC "-//W3C//DTD SVG 1.1//EN" "http://www.w3.org/Graphics/SVG/1.1/DTD/svg11.dtd"><svg class="icon" width="32px" height="32.00px" viewBox="0 0 1024 1024" version="1.1" xmlns="http://www.w3.org/2000/svg"><path d="M879.439068 605.925183c47.483454 22.217001 80.391958 69.758784 80.391959 125.019365h-28.106128c0-61.188594-50.324152-110.751407-112.385627-110.751407-23.830755 0-45.892213 7.326872-64.066131 19.786649l-19.921725-19.612687c9.815553-7.251148 20.446681-13.45136 32.013111-17.97949-27.989471-18.658965-46.37726-50.246381-46.37726-86.067214 0-57.33994 47.174416-103.84409 105.368816-103.84409s105.369839 46.50415 105.369839 103.84409c-0.001023 38.252209-21.052478 71.604828-52.286854 89.604784z m-53.084009-165.750022c-42.683125 0-77.281107 34.082236-77.281107 76.146261 0 42.060955 34.599006 76.155471 77.281107 76.155471 42.684148 0 77.281107-34.094516 77.281108-76.155471 0.001023-42.064025-34.596959-76.146261-77.281108-76.146261zM621.467669 577.431222c79.519078 39.162952 135.107117 119.420857 138.819672 213.225289h-39.805588c-4.218068-89.48915-64.590064-164.244738-146.69299-189.669804-19.398816 6.707772-40.11872 10.536984-61.791321 10.536984-21.671579 0-42.391483-3.829212-61.789275-10.536984-82.101903 25.425066-142.474922 100.17963-146.69299 189.669804h-39.806611c3.712555-93.804433 59.302641-174.062338 138.819672-213.225289l25.4046 14.18814c-62.199621-30.982642-105.019869-95.008864-105.019869-169.190377 0-104.416118 84.648912-189.084473 189.083449-189.084473 104.436584 0 189.084473 84.668355 189.084473 189.084473 0 74.182536-42.820248 138.207735-105.017822 169.190377m-84.064604-318.468238c-82.432431 0-149.275815 66.835198-149.275815 149.276838 0 82.462107 66.843384 149.286048 149.275815 149.286048 82.434477 0 149.278885-66.823941 149.278885-149.286048 0-82.442664-66.844407-149.276838-149.278885-149.276838zM256.63445 602.387613c11.544941 4.529153 22.196535 10.728342 32.012088 17.97949l-19.922749 19.612687c-18.173918-12.441357-40.234353-19.786649-64.064084-19.786649-62.062498 0-112.405069 49.562812-112.40507 110.751407H64.16795c0-55.260581 32.907481-102.802364 80.391958-125.019365-31.235398-17.999956-52.30425-51.353598-52.304249-89.604784 0-57.33994 47.192835-103.84409 105.388258-103.84409 58.1944 0 105.367793 46.50415 105.367793 103.84409-0.001023 35.821857-18.407232 67.408249-46.37726 86.067214z m-58.990533-162.212452c-42.685171 0-77.282131 34.082236-77.28213 76.146261 0 42.060955 34.597983 76.155471 77.28213 76.155471 42.663682 0 77.261665-34.094516 77.261665-76.155471 0-42.064025-34.597983-76.146261-77.261665-76.146261z" fill="#707070" /></svg>