<?xml version="1.0" standalone="no"?><!DOCTYPE svg PUBLIC "-//W3C//DTD SVG 1.1//EN" "http://www.w3.org/Graphics/SVG/1.1/DTD/svg11.dtd"><svg class="icon" width="32px" height="32.00px" viewBox="0 0 1024 1024" version="1.1" xmlns="http://www.w3.org/2000/svg"><path d="M415.365554 576.555422m-405.250547 0a405.250547 405.250547 0 1 0 810.501094 0 405.250547 405.250547 0 1 0-810.501094 0Z" fill="#e9eaeb" /><path d="M868.301136 314.28773V123.619841a63.580047 63.580047 0 0 0-63.580047-63.580047h-397.375291a63.580047 63.580047 0 0 0-63.580046 63.580047v79.475058H121.307839A63.580047 63.580047 0 0 0 57.800042 266.674945V552.712905a63.580047 63.580047 0 0 0 63.580047 63.580046h63.580046v103.751076a15.895012 15.895012 0 0 0 27.31052 11.054258L323.102237 616.292951h116.105835v47.685035a63.580047 63.580047 0 0 0 63.580046 63.580047h243.193678l110.903832 114.733084a15.895012 15.895012 0 0 0 27.31052-11.054258V727.558033H932.025683a63.580047 63.580047 0 0 0 63.580046-63.580047V377.867777a63.580047 63.580047 0 0 0-63.580046-63.580047z" fill="#ffffff" /><path d="M121.307839 203.094899h381.480279a63.580047 63.580047 0 0 1 63.580047 63.580046V552.712905a63.580047 63.580047 0 0 1-63.580047 63.580046H323.102237l-110.903832 114.733084a15.895012 15.895012 0 0 1-27.31052-11.054258V616.292951h-63.580046A63.580047 63.580047 0 0 1 57.800042 552.712905V266.674945a63.580047 63.580047 0 0 1 63.507797-63.580046z" fill="#a3d4ff" /><path d="M200.855147 751.834051a31.862273 31.862273 0 0 1-31.862273-31.790024V632.187963h-47.685035a79.475058 79.475058 0 0 1-79.475058-79.475058V266.602695a79.475058 79.475058 0 0 1 79.475058-79.475058h381.480279a79.475058 79.475058 0 0 1 79.475058 79.475058v286.11021a79.475058 79.475058 0 0 1-79.475058 79.475058H329.893742L223.975164 742.080294a31.645523 31.645523 0 0 1-23.120017 9.753757z m-79.475058-532.844141a47.757285 47.757285 0 0 0-47.685035 47.685035V552.712905a47.757285 47.757285 0 0 0 47.685035 47.685035h79.475058v119.646087l115.600085-119.646087h186.405136a47.757285 47.757285 0 0 0 47.685035-47.685035V266.602695a47.757285 47.757285 0 0 0-47.685035-47.685035z" fill="#2a5082" /><path d="M518.68313 473.237847h-111.265082a79.475058 79.475058 0 0 1-79.475058-79.475059V250.779934h31.790023V393.762788a47.757285 47.757285 0 0 0 47.685035 47.685035h111.265082zM884.196148 314.28773H852.550624V123.619841a47.757285 47.757285 0 0 0-47.685034-47.685035h-397.375292a47.757285 47.757285 0 0 0-47.685034 47.685035v79.475058h-31.790024v-79.475058a79.475058 79.475058 0 0 1 79.475058-79.475059h397.375292a79.475058 79.475058 0 0 1 79.475058 79.475059zM757.108305 590.644183a31.573273 31.573273 0 0 1-23.625768-10.693008L638.690468 473.237847h-72.250053v-31.790024h86.700063l104.329077 117.334086 0.50575-117.334086h46.962535a47.757285 47.757285 0 0 0 47.685034-47.685035v-31.790023h31.790024v31.790023a79.475058 79.475058 0 0 1-79.475058 79.475059h-15.317012l-0.36125 85.688562a31.573273 31.573273 0 0 1-20.591265 29.622522 31.934523 31.934523 0 0 1-11.560008 2.095252z" fill="#2a5082" /><path d="M868.228886 863.099132a31.645523 31.645523 0 0 1-22.831017-9.753757l-106.207578-109.89233H502.788118a79.475058 79.475058 0 0 1-79.475058-79.475059v-47.685035H455.175333v47.685035a47.757285 47.757285 0 0 0 47.685035 47.685035h249.985183l115.600085 119.646088V711.663021h63.580047a47.757285 47.757285 0 0 0 47.685035-47.685035V377.867777a47.757285 47.757285 0 0 0-47.685035-47.685035H566.368165v-31.790023H932.025683a79.475058 79.475058 0 0 1 79.475058 79.475058v286.110209a79.475058 79.475058 0 0 1-79.475058 79.475059h-31.790024v87.856064a31.862273 31.862273 0 0 1-31.862273 31.790023z" fill="#2a5082" /><path d="M423.31306 457.342835h31.790023v111.265081h-31.790023zM455.175333 409.6578h-31.790023v-31.790023a79.475058 79.475058 0 0 1 79.475058-79.475058h15.895012v31.790023h-15.895012a47.757285 47.757285 0 0 0-47.685035 47.685035z" fill="#2a5082" /></svg>