<?xml version="1.0" standalone="no"?><!DOCTYPE svg PUBLIC "-//W3C//DTD SVG 1.1//EN" "http://www.w3.org/Graphics/SVG/1.1/DTD/svg11.dtd"><svg class="icon" width="32px" height="32.00px" viewBox="0 0 1024 1024" version="1.1" xmlns="http://www.w3.org/2000/svg"><path d="M233 260v513c0 1.1 0.9 2 2 2h562c1.1 0 2-0.9 2-2V260c0-1.1-0.9-2-2-2H235c-1.1 0-2 0.9-2 2z m160 219h246c20.4 0 37 16.6 37 37s-16.6 37-37 37H393c-20.4 0-37-16.6-37-37s16.6-37 37-37z" fill="#744cff" /><path d="M869.8 612c-16.4 0-29.7 13.3-29.7 29.6v158.8c0 20.7-17.8 38.5-38.6 38.5H641.7c-16.3 0-29.7 13.3-29.7 29.6s13.4 29.6 29.7 29.6h179c43.1 0 77.3-34 77.3-76.9V641.6c0-16.3-11.9-29.6-28.2-29.6zM819.6 110h-178c-16.3 0-29.6 13.3-29.6 29.6s13.3 29.6 29.6 29.6h158.8c20.7 0 38.5 17.8 38.5 38.5v158.8c0 16.3 13.3 29.6 29.6 29.6s29.6-13.3 29.6-29.6V186.9c-1.6-42.9-35.6-76.9-78.5-76.9zM138.2 396c16.3 0 29.7-13.3 29.7-29.6V207.6c0-20.7 17.8-38.5 38.6-38.5h159.7c16.4 0 29.7-13.3 29.7-29.6s-13.4-29.6-29.7-29.6h-179c-43.1 0-77.3 34-77.3 76.9v178c0.1-6.8 12 31.2 28.3 31.2zM367.8 840H208.1c-20.8 0-38.6-17.8-38.6-38.6V641.7c0-16.4-13.4-29.7-29.7-29.7-16.4 0-29.7 13.4-29.7 29.7v179c0 43.1 34.2 77.3 77.3 77.3h179c16.3 0 29.7-13.4 29.7-29.7-0.1-14.9-12-28.3-28.3-28.3z" fill="#744cff" /></svg>