<?xml version="1.0" standalone="no"?><!DOCTYPE svg PUBLIC "-//W3C//DTD SVG 1.1//EN" "http://www.w3.org/Graphics/SVG/1.1/DTD/svg11.dtd"><svg class="icon" width="32px" height="32.00px" viewBox="0 0 1024 1024" version="1.1" xmlns="http://www.w3.org/2000/svg"><path d="M512.004605 866.644159c-58.296731 0-115.121947-10.568706-169.101349-31.466666l-208.594829 93.888344c-2.814092 1.295506-5.78782 1.918699-8.809643 1.918699-4.9088 0-9.785877-1.710968-13.734816-4.988618-6.284123-5.29254-9.06547-13.68672-7.131421-21.617343l51.16531-208.594829C107.574552 631.652124 82.216002 557.190225 82.216002 479.834416c0-213.295897 192.829773-386.809743 429.788603-386.809743 236.975203 0 429.788603 173.514869 429.788603 386.809743C941.793208 693.098591 748.979808 866.644159 512.004605 866.644159L512.004605 866.644159zM512.004605 136.003534c-213.295897 0-386.809743 154.247037-386.809743 343.830883 0 71.02359 24.479531 139.345652 70.767763 197.690478 4.109598 5.164626 5.628184 12.007475 4.02978 18.467607L156.884608 871.808786l176.664605-79.610152c5.324262-2.39863 11.543917-2.478448 16.949021-0.255827 51.373041 21.025872 105.736183 31.722492 161.506371 31.722492 213.311247 0 386.809743-154.231687 386.809743-343.830883C898.814348 290.251593 725.315852 136.003534 512.004605 136.003534L512.004605 136.003534zM361.626689 436.823833c-11.879562 0-21.537526-9.657964-21.537526-21.537526s9.657964-21.441335 21.537526-21.441335c11.799744 0 21.441335 9.561773 21.441335 21.441335S373.426433 436.823833 361.626689 436.823833L361.626689 436.823833zM662.478711 436.823833c-11.879562 0-21.537526-9.657964-21.537526-21.537526s9.657964-21.441335 21.537526-21.441335c11.799744 0 21.441335 9.561773 21.441335 21.441335S674.278455 436.823833 662.478711 436.823833L662.478711 436.823833zM361.626689 458.265168c-23.760147 0-42.97886-19.218714-42.97886-42.97886s19.218714-42.97886 42.97886-42.97886c23.680329 0 42.97886 19.218714 42.97886 42.97886S385.305995 458.265168 361.626689 458.265168L361.626689 458.265168zM662.478711 458.265168c-23.760147 0-42.97886-19.218714-42.97886-42.97886s19.218714-42.97886 42.97886-42.97886c23.680329 0 42.97886 19.218714 42.97886 42.97886S686.158017 458.265168 662.478711 458.265168L662.478711 458.265168z" fill="#707070" /></svg>