<?xml version="1.0" standalone="no"?><!DOCTYPE svg PUBLIC "-//W3C//DTD SVG 1.1//EN" "http://www.w3.org/Graphics/SVG/1.1/DTD/svg11.dtd"><svg class="icon" width="32px" height="32.00px" viewBox="0 0 1024 1024" version="1.1" xmlns="http://www.w3.org/2000/svg"><path d="M844.8 620.5184v-55.9616c75.8016-37.7088 128-115.7376 128-206.1568a230.4 230.4 0 0 0-230.4-230.4c-127.2576 0-234.496 103.2192-230.4 230.4 3.968 123.008 54.7584 225.3056 51.2 307.2-6.7584 155.3664-126.08 281.6-281.6 281.6S0 821.12 0 665.6c0-120.7808 76.1856-223.488 182.9888-263.5008A153.2416 153.2416 0 0 0 179.2 435.2v24.2432C103.3984 497.152 51.2 575.1808 51.2 665.6a230.4 230.4 0 0 0 230.4 230.4c127.2576 0 214.1184-98.0992 230.4-230.4 9.1392-74.1632-43.264-184.32-50.8416-314.4448C455.9616 199.8848 589.312 76.8 742.4 76.8c155.52 0 281.6 126.08 281.6 281.6 0 119.3472-74.368 221.1072-179.2 262.1184z" fill="#f66c62" /><path d="M691.2 819.2h204.8v51.2h-204.8z" fill="#f66c62" /></svg>