<?xml version="1.0" standalone="no"?><!DOCTYPE svg PUBLIC "-//W3C//DTD SVG 1.1//EN" "http://www.w3.org/Graphics/SVG/1.1/DTD/svg11.dtd"><svg class="icon" width="32px" height="32.00px" viewBox="0 0 1024 1024" version="1.1" xmlns="http://www.w3.org/2000/svg"><path d="M575.3 951c-7.8 0-15.5-1.2-23.2-3.6L221.7 840.9c-39.5-12.7-61.3-55.2-48.6-94.7L307 330.6c5.6-17.5 24.5-27.1 41.8-21.4 17.5 5.6 27.1 24.3 21.4 41.8L236.3 766.6c-1.5 4.6 1.1 9.6 5.7 11.1l330.4 106.5c2.9 0.9 5.3 0.2 6.7-0.6 1.5-0.8 3.4-2.3 4.3-5.1l33.9-107.2 169.1-522.9c1.5-4.6-1-9.6-5.7-11.1L450.4 130.8c-2.9-0.9-5.2-0.2-6.7 0.6s-3.4 2.3-4.3 5.1L412 221.7c-5.6 17.5-24.3 27.2-41.8 21.4-17.5-5.6-27.1-24.3-21.4-41.8l27.4-85.2c6.2-19.1 19.4-34.7 37.3-43.9s38.3-10.8 57.4-4.7L801.3 174c39.5 12.7 61.2 55.2 48.6 94.7l-203 630c-6.2 19.3-19.4 34.9-37.3 44.1-10.8 5.4-22.5 8.2-34.3 8.2z" fill="#009fe8" /><path d="M650.5 268c-1.7 0-3.4-0.3-5.1-0.8l-102.4-33c-8.7-2.8-13.5-12.2-10.7-20.9 2.8-8.7 12.2-13.4 20.9-10.7l102.4 33c8.7 2.8 13.5 12.2 10.7 20.9-2.3 7.1-8.8 11.5-15.8 11.5zM626.9 811c-1.7 0-3.4-0.3-5.1-0.8L245.2 688.9c-8.7-2.8-13.5-12.2-10.7-20.9 2.8-8.7 12.3-13.4 20.9-10.7L632 778.6c8.7 2.8 13.5 12.2 10.7 20.9-2.3 7-8.8 11.5-15.8 11.5z" fill="#009fe8" /><path d="M415.557092 805.151807a18.9 18.9 0 1 0 11.589826-35.979382 18.9 18.9 0 1 0-11.589826 35.979382Z" fill="#009fe8" /><path d="M853.4 465.2c-1.2 0-2.5-0.2-3.8-0.6-6.6-2.1-10.2-9.1-8.1-15.7L903 255.5c3-9.5 2.7-19.3-0.8-27.6-3.3-7.8-9.1-13.3-16.4-15.6-6.6-2.1-10.2-9.1-8.1-15.7 2.1-6.6 9.2-10.1 15.7-8 14.2 4.6 25.4 15 31.7 29.5 5.9 13.9 6.6 29.9 1.7 45l-61.5 193.4c-1.7 5.3-6.6 8.7-11.9 8.7z" fill="#009fe8" /><path d="M886.4 526.3c-1.2 0-2.5-0.2-3.8-0.6-6.6-2.1-10.2-9.1-8.1-15.7L936 316.6c2.1-6.5 9.1-10.2 15.6-8.1 6.6 2.1 10.2 9.1 8.1 15.7l-61.5 193.4c-1.6 5.3-6.5 8.7-11.8 8.7z" fill="#009fe8" /><path d="M134.1 847.2c-1.3 0-2.5-0.2-3.8-0.6-28.6-9.2-43.6-42.6-33.3-74.5l61.5-193.4c2.1-6.5 9.1-10.2 15.6-8.1 6.6 2.1 10.2 9.1 8.1 15.7l-61.5 193.4c-6 18.9 1.7 38.3 17.2 43.3 6.6 2.1 10.2 9.1 8.1 15.7-1.8 5.2-6.6 8.5-11.9 8.5z" fill="#009fe8" /><path d="M75.8 727.3c-1.2 0-2.5-0.2-3.8-0.6-6.6-2.1-10.2-9.1-8.1-15.7l61.5-193.4c2.1-6.5 9.1-10.2 15.6-8.1 6.6 2.1 10.2 9.1 8.1 15.7L87.7 718.6c-1.7 5.3-6.6 8.7-11.9 8.7z" fill="#009fe8" /></svg>