<?xml version="1.0" standalone="no"?><!DOCTYPE svg PUBLIC "-//W3C//DTD SVG 1.1//EN" "http://www.w3.org/Graphics/SVG/1.1/DTD/svg11.dtd"><svg class="icon" width="32px" height="32.00px" viewBox="0 0 1024 1024" version="1.1" xmlns="http://www.w3.org/2000/svg"><path d="M782 252.4c-56.5 0-106.4 77.3-242.7 81.5-137.2 4.1-188.8-81.5-260.3-81.5-91.3 0-130.2 120.3-130.2 268.7 0 148.4 3.6 280.4 94.9 280.4 107.4 0 172.9-157.5 278.7-157.2 114.2 0.3 188.7 157.2 294.6 157.2 91.3 0 94.9-132 94.9-280.4 0.2-148.4-38.6-268.7-129.9-268.7z" fill="#ffe4b3" /><path d="M782 783.9c-58.5 0-106.6-41-153.2-80.6-46.2-39.3-89.8-76.5-141.5-76.6h-0.2c-45.8 0-84.9 35.7-126.3 73.5-45 41.1-91.5 83.7-152.2 83.7-27 0-49.3-9.7-66.5-28.8-14.5-16.2-25.1-38.8-32.4-69.3C97.1 632.8 96 563.9 96 485.9c0-80.3 11.2-148.4 32.3-197 32.1-73.8 80.5-89.3 115.5-89.3 34.1 0 63.4 16.4 94.4 33.7 40.2 22.5 85.8 47.9 156.3 47.9 3 0 6 0 9.1-0.1 77.6-2.3 125.7-29.8 164.3-51.9 27.8-15.9 51.8-29.6 78.9-29.6 35 0 83.4 15.5 115.5 89.3 21.1 48.6 32.3 116.7 32.3 197 0 78-1 146.9-13.7 199.9-7.3 30.4-17.9 53.1-32.4 69.3-17.2 19.1-39.6 28.8-66.5 28.8zM487.1 591.4h0.3c64.6 0.2 115.3 43.3 164.3 85 43.6 37.1 84.8 72.2 130.3 72.2 22.2 0 49.5-8.1 64.6-71 11.8-49.2 12.7-118.8 12.7-191.7 0-75.5-10.2-138.7-29.4-183-19.6-45.2-47.6-68.1-83.2-68.1-17.8 0-37.1 11-61.4 25-39.8 22.7-94.3 53.9-180.7 56.5-3.4 0.1-6.8 0.2-10.1 0.2-79.7 0-131.7-29.1-173.5-52.4-29.2-16.3-52.3-29.2-77.2-29.2-35.6 0-63.5 22.9-83.2 68.1-19.2 44.2-29.4 107.5-29.4 183 0 73 1 142.5 12.7 191.7 15 63 42.4 71 64.6 71 47 0 86.6-36.2 128.4-74.4 44.6-40.8 90.7-82.9 150.2-82.9z" fill="#efa716" /><path d="M495.3 315.5c-9.7 0-17.6-7.9-17.6-17.6v-99.8c0-9.7 7.9-17.6 17.6-17.6s17.6 7.9 17.6 17.6v99.8c0 9.7-7.9 17.6-17.6 17.6z" fill="#efa716" /><path d="M288.6 581c-9.7 0-17.6-7.9-17.6-17.6V420.1c0-9.7 7.9-17.6 17.6-17.6s17.6 7.9 17.6 17.6v143.3c0 9.7-7.9 17.6-17.6 17.6z" fill="#efa716" /><path d="M360.2 509.3H216.9c-9.7 0-17.6-7.9-17.6-17.6s7.9-17.6 17.6-17.6h143.3c9.7 0 17.6 7.9 17.6 17.6s-7.9 17.6-17.6 17.6z" fill="#efa716" /><path d="M639.6 491.7m-32 0a32 32 0 1 0 64 0 32 32 0 1 0-64 0Z" fill="#efa716" /><path d="M697.8 433.6m-32 0a32 32 0 1 0 64 0 32 32 0 1 0-64 0Z" fill="#efa716" /><path d="M697.8 549.9m-32 0a32 32 0 1 0 64 0 32 32 0 1 0-64 0Z" fill="#efa716" /><path d="M755.9 491.7m-32 0a32 32 0 1 0 64 0 32 32 0 1 0-64 0Z" fill="#efa716" /></svg>